FullBodyModel_MuscleActuatedLowerLimb_TorqueActuatedUpperBody_states
version=1
nRows=4
nColumns=205
inDegrees=yes

# SIMM Motion File Header:
name FullBodyModel_MuscleActuatedLowerLimb_TorqueActuatedUpperBody_states
datacolumns 205
datarows 4
otherdata 1
range 1.00217883 1.00593402
endheader
time	/jointset/ground_pelvis/pelvis_tilt/value	/jointset/ground_pelvis/pelvis_tilt/speed	/jointset/ground_pelvis/pelvis_list/value	/jointset/ground_pelvis/pelvis_list/speed	/jointset/ground_pelvis/pelvis_rotation/value	/jointset/ground_pelvis/pelvis_rotation/speed	/jointset/ground_pelvis/pelvis_tx/value	/jointset/ground_pelvis/pelvis_tx/speed	/jointset/ground_pelvis/pelvis_ty/value	/jointset/ground_pelvis/pelvis_ty/speed	/jointset/ground_pelvis/pelvis_tz/value	/jointset/ground_pelvis/pelvis_tz/speed	/jointset/hip_r/hip_flexion_r/value	/jointset/hip_r/hip_flexion_r/speed	/jointset/hip_r/hip_adduction_r/value	/jointset/hip_r/hip_adduction_r/speed	/jointset/hip_r/hip_rotation_r/value	/jointset/hip_r/hip_rotation_r/speed	/jointset/walker_knee_r/knee_angle_r/value	/jointset/walker_knee_r/knee_angle_r/speed	/jointset/patellofemoral_r/knee_angle_r_beta/value	/jointset/patellofemoral_r/knee_angle_r_beta/speed	/jointset/ankle_r/ankle_angle_r/value	/jointset/ankle_r/ankle_angle_r/speed	/jointset/subtalar_r/subtalar_angle_r/value	/jointset/subtalar_r/subtalar_angle_r/speed	/jointset/mtp_r/mtp_angle_r/value	/jointset/mtp_r/mtp_angle_r/speed	/jointset/hip_l/hip_flexion_l/value	/jointset/hip_l/hip_flexion_l/speed	/jointset/hip_l/hip_adduction_l/value	/jointset/hip_l/hip_adduction_l/speed	/jointset/hip_l/hip_rotation_l/value	/jointset/hip_l/hip_rotation_l/speed	/jointset/walker_knee_l/knee_angle_l/value	/jointset/walker_knee_l/knee_angle_l/speed	/jointset/patellofemoral_l/knee_angle_l_beta/value	/jointset/patellofemoral_l/knee_angle_l_beta/speed	/jointset/ankle_l/ankle_angle_l/value	/jointset/ankle_l/ankle_angle_l/speed	/jointset/subtalar_l/subtalar_angle_l/value	/jointset/subtalar_l/subtalar_angle_l/speed	/jointset/mtp_l/mtp_angle_l/value	/jointset/mtp_l/mtp_angle_l/speed	/jointset/back/lumbar_extension/value	/jointset/back/lumbar_extension/speed	/jointset/back/lumbar_bending/value	/jointset/back/lumbar_bending/speed	/jointset/back/lumbar_rotation/value	/jointset/back/lumbar_rotation/speed	/jointset/acromial_r/arm_flex_r/value	/jointset/acromial_r/arm_flex_r/speed	/jointset/acromial_r/arm_add_r/value	/jointset/acromial_r/arm_add_r/speed	/jointset/acromial_r/arm_rot_r/value	/jointset/acromial_r/arm_rot_r/speed	/jointset/elbow_r/elbow_flex_r/value	/jointset/elbow_r/elbow_flex_r/speed	/jointset/radioulnar_r/pro_sup_r/value	/jointset/radioulnar_r/pro_sup_r/speed	/jointset/radius_hand_r/wrist_flex_r/value	/jointset/radius_hand_r/wrist_flex_r/speed	/jointset/radius_hand_r/wrist_dev_r/value	/jointset/radius_hand_r/wrist_dev_r/speed	/jointset/acromial_l/arm_flex_l/value	/jointset/acromial_l/arm_flex_l/speed	/jointset/acromial_l/arm_add_l/value	/jointset/acromial_l/arm_add_l/speed	/jointset/acromial_l/arm_rot_l/value	/jointset/acromial_l/arm_rot_l/speed	/jointset/elbow_l/elbow_flex_l/value	/jointset/elbow_l/elbow_flex_l/speed	/jointset/radioulnar_l/pro_sup_l/value	/jointset/radioulnar_l/pro_sup_l/speed	/jointset/radius_hand_l/wrist_flex_l/value	/jointset/radius_hand_l/wrist_flex_l/speed	/jointset/radius_hand_l/wrist_dev_l/value	/jointset/radius_hand_l/wrist_dev_l/speed	/forceset/addbrev_r/activation	/forceset/addlong_r/activation	/forceset/addlong_r/fiber_length	/forceset/addmagDist_r/activation	/forceset/addmagIsch_r/activation	/forceset/addmagIsch_r/fiber_length	/forceset/addmagMid_r/activation	/forceset/addmagProx_r/activation	/forceset/bflh_r/activation	/forceset/bflh_r/fiber_length	/forceset/bfsh_r/activation	/forceset/edl_r/activation	/forceset/edl_r/fiber_length	/forceset/ehl_r/activation	/forceset/ehl_r/fiber_length	/forceset/fdl_r/activation	/forceset/fdl_r/fiber_length	/forceset/fhl_r/activation	/forceset/fhl_r/fiber_length	/forceset/gaslat_r/activation	/forceset/gaslat_r/fiber_length	/forceset/gasmed_r/activation	/forceset/gasmed_r/fiber_length	/forceset/glmax1_r/activation	/forceset/glmax2_r/activation	/forceset/glmax3_r/activation	/forceset/glmed1_r/activation	/forceset/glmed2_r/activation	/forceset/glmed3_r/activation	/forceset/glmin1_r/activation	/forceset/glmin2_r/activation	/forceset/glmin3_r/activation	/forceset/glmin3_r/fiber_length	/forceset/grac_r/activation	/forceset/iliacus_r/activation	/forceset/perbrev_r/activation	/forceset/perbrev_r/fiber_length	/forceset/perlong_r/activation	/forceset/perlong_r/fiber_length	/forceset/piri_r/activation	/forceset/piri_r/fiber_length	/forceset/psoas_r/activation	/forceset/recfem_r/activation	/forceset/recfem_r/fiber_length	/forceset/sart_r/activation	/forceset/semimem_r/activation	/forceset/semimem_r/fiber_length	/forceset/semiten_r/activation	/forceset/semiten_r/fiber_length	/forceset/soleus_r/activation	/forceset/soleus_r/fiber_length	/forceset/tfl_r/activation	/forceset/tfl_r/fiber_length	/forceset/tibant_r/activation	/forceset/tibant_r/fiber_length	/forceset/tibpost_r/activation	/forceset/tibpost_r/fiber_length	/forceset/vasint_r/activation	/forceset/vasint_r/fiber_length	/forceset/vaslat_r/activation	/forceset/vaslat_r/fiber_length	/forceset/vasmed_r/activation	/forceset/vasmed_r/fiber_length	/forceset/addbrev_l/activation	/forceset/addlong_l/activation	/forceset/addlong_l/fiber_length	/forceset/addmagDist_l/activation	/forceset/addmagIsch_l/activation	/forceset/addmagIsch_l/fiber_length	/forceset/addmagMid_l/activation	/forceset/addmagProx_l/activation	/forceset/bflh_l/activation	/forceset/bflh_l/fiber_length	/forceset/bfsh_l/activation	/forceset/edl_l/activation	/forceset/edl_l/fiber_length	/forceset/ehl_l/activation	/forceset/ehl_l/fiber_length	/forceset/fdl_l/activation	/forceset/fdl_l/fiber_length	/forceset/fhl_l/activation	/forceset/fhl_l/fiber_length	/forceset/gaslat_l/activation	/forceset/gaslat_l/fiber_length	/forceset/gasmed_l/activation	/forceset/gasmed_l/fiber_length	/forceset/glmax1_l/activation	/forceset/glmax2_l/activation	/forceset/glmax3_l/activation	/forceset/glmed1_l/activation	/forceset/glmed2_l/activation	/forceset/glmed3_l/activation	/forceset/glmin1_l/activation	/forceset/glmin2_l/activation	/forceset/glmin3_l/activation	/forceset/glmin3_l/fiber_length	/forceset/grac_l/activation	/forceset/iliacus_l/activation	/forceset/perbrev_l/activation	/forceset/perbrev_l/fiber_length	/forceset/perlong_l/activation	/forceset/perlong_l/fiber_length	/forceset/piri_l/activation	/forceset/piri_l/fiber_length	/forceset/psoas_l/activation	/forceset/recfem_l/activation	/forceset/recfem_l/fiber_length	/forceset/sart_l/activation	/forceset/semimem_l/activation	/forceset/semimem_l/fiber_length	/forceset/semiten_l/activation	/forceset/semiten_l/fiber_length	/forceset/soleus_l/activation	/forceset/soleus_l/fiber_length	/forceset/tfl_l/activation	/forceset/tfl_l/fiber_length	/forceset/tibant_l/activation	/forceset/tibant_l/fiber_length	/forceset/tibpost_l/activation	/forceset/tibpost_l/fiber_length	/forceset/vasint_l/activation	/forceset/vasint_l/fiber_length	/forceset/vaslat_l/activation	/forceset/vaslat_l/fiber_length	/forceset/vasmed_l/activation	/forceset/vasmed_l/fiber_length
      1.00217883	     -0.04197488	    -16.51201181	     -0.00000000	     -0.00000000	     -0.00000000	     -0.00000000	      0.01768050	      0.03243762	     -3.99958424	     -9.87980696	      0.00000000	      0.00000000	    -15.86058576	     -9.42657439	     22.99472789	      9.83442883	    -26.31318937	     48.89678781	    -46.17237349	    -55.86172000	     -0.80585994	     -0.97497094	    -22.00468550	      5.68627313	     -0.00000000	     -0.00000000	      0.00000000	     -0.00000000	    -15.86058576	     -9.42657439	     22.99472789	      9.83442883	    -26.31318937	     48.89678780	    -46.17237349	    -55.86172000	     -0.80585994	     -0.97497094	    -22.00468550	      5.68627312	      0.00000000	      0.00000000	      0.00000000	      0.00000000	      2.02340506	     22.94368615	      0.00000000	      0.00000000	      0.00000000	      0.00000000	     -2.79136123	     -9.29992819	     -0.06852514	     -0.26554062	      0.23993169	      0.45066043	      0.39171705	      2.55442005	      0.01992309	     -0.32829135	      0.00000000	      0.00000000	      0.00000000	      0.00000000	     -2.79136123	     -9.29992819	     -0.06852514	     -0.26554062	      0.23993169	      0.45066043	      0.39171705	      2.55442005	      0.01992309	     -0.32829135	      0.00000000	      0.00000000	     -0.00000000	     -0.00000000	     -0.11903052	     -0.11903052	      0.10545256	     -0.11903052	     -0.11903052	      0.11045264	     -0.11903052	     -0.11903052	     -0.11903052	      0.08894892	     -0.11903052	     -0.11903052	      0.08100680	     -0.11903052	      0.09073225	     -0.11903052	      0.04187843	     -0.11903052	      0.04563176	     -0.11903052	      0.05680454	     -0.11903052	      0.02747787	     -0.11903052	     -0.11903052	     -0.11903052	     -0.11903052	     -0.11903052	     -0.11903052	     -0.11903052	     -0.11903052	     -0.11903052	      0.03505394	     -0.11903052	     -0.11903052	     -0.11903052	      0.04611690	     -0.11903052	      0.05077400	     -0.11903052	      0.01039564	     -0.11903052	     -0.11903052	      0.03682917	     -0.11903052	     -0.11903052	      0.07095710	     -0.11903052	      0.21653398	     -0.11903052	      0.03321746	     -0.11903052	      0.10489599	     -0.11903052	      0.08054600	     -0.11903052	      0.03540333	     -0.11903052	      0.04162682	     -0.11903052	      0.04968415	     -0.11903052	      0.05284306	     -0.11903052	     -0.11903052	      0.10545256	     -0.11903052	     -0.11903052	      0.11045264	     -0.11903052	     -0.11903052	     -0.11903052	      0.08894892	     -0.11903052	     -0.11903052	      0.08100680	     -0.11903052	      0.09073225	     -0.11903052	      0.04187843	     -0.11903052	      0.04563176	     -0.11903052	      0.05680454	     -0.11903052	      0.02747787	     -0.11903052	     -0.11903052	     -0.11903052	     -0.11903052	     -0.11903052	     -0.11903052	     -0.11903052	     -0.11903052	     -0.11903052	      0.03505394	     -0.11903052	     -0.11903052	     -0.11903052	      0.04611690	     -0.11903052	      0.05077400	     -0.11903052	      0.01039564	     -0.11903052	     -0.11903052	      0.03682917	     -0.11903052	     -0.11903052	      0.07095710	     -0.11903052	      0.21653398	     -0.11903052	      0.03321746	     -0.11903052	      0.10489599	     -0.11903052	      0.08054600	     -0.11903052	      0.03540333	     -0.11903052	      0.04162682	     -0.11903052	      0.04968415	     -0.11903052	      0.05284306
      1.00343056	     -0.06264496	    -16.51308486	     -0.00000000	     -0.00000000	     -0.00000000	     -0.00000000	      0.01772111	      0.03244810	     -4.01195878	     -9.89206672	      0.00000000	      0.00000000	    -15.87237719	     -9.41544456	     23.00696861	      9.72389514	    -26.25198818	     48.88881785	    -46.24226325	    -55.80871786	     -0.80707975	     -0.97404588	    -21.99721714	      6.23727990	     -0.00000000	     -0.00000000	      0.00000000	     -0.00000000	    -15.87237719	     -9.41544456	     23.00696861	      9.72389514	    -26.25198818	     48.88881784	    -46.24226325	    -55.80871786	     -0.80707975	     -0.97404588	    -21.99721714	      6.23727990	      0.00000000	      0.00000000	      0.00000000	      0.00000000	      2.05212773	     22.94753559	      0.00000000	      0.00000000	      0.00000000	      0.00000000	     -2.80300492	     -9.30390502	     -0.06885762	     -0.26568012	      0.24049580	      0.45067332	      0.39491559	      2.55603754	      0.01951192	     -0.32863519	      0.00000000	      0.00000000	      0.00000000	      0.00000000	     -2.80300492	     -9.30390502	     -0.06885762	     -0.26568012	      0.24049580	      0.45067332	      0.39491559	      2.55603754	      0.01951192	     -0.32863519	      0.00000000	      0.00000000	     -0.00000000	     -0.00000000	     -0.11919168	     -0.11919168	      0.10544550	     -0.11919168	     -0.11919168	      0.11044404	     -0.11919168	     -0.11919168	     -0.11919168	      0.08895344	     -0.11919168	     -0.11919168	      0.08100371	     -0.11919168	      0.09072890	     -0.11919168	      0.04187961	     -0.11919168	      0.04563354	     -0.11919168	      0.05679344	     -0.11919168	      0.02742219	     -0.11919168	     -0.11919168	     -0.11919168	     -0.11919168	     -0.11919168	     -0.11919168	     -0.11919168	     -0.11919168	     -0.11919168	      0.03508554	     -0.11919168	     -0.11919168	     -0.11919168	      0.04611770	     -0.11919168	      0.05077509	     -0.11919168	      0.01042927	     -0.11919168	     -0.11919168	      0.03677582	     -0.11919168	     -0.11919168	      0.07096105	     -0.11919168	      0.21653795	     -0.11919168	      0.03322159	     -0.11919168	      0.10488491	     -0.11919168	      0.08054214	     -0.11919168	      0.03540457	     -0.11919168	      0.04157231	     -0.11919168	      0.04964831	     -0.11919168	      0.05281282	     -0.11919168	     -0.11919168	      0.10544550	     -0.11919168	     -0.11919168	      0.11044404	     -0.11919168	     -0.11919168	     -0.11919168	      0.08895344	     -0.11919168	     -0.11919168	      0.08100371	     -0.11919168	      0.09072890	     -0.11919168	      0.04187961	     -0.11919168	      0.04563354	     -0.11919168	      0.05679344	     -0.11919168	      0.02742219	     -0.11919168	     -0.11919168	     -0.11919168	     -0.11919168	     -0.11919168	     -0.11919168	     -0.11919168	     -0.11919168	     -0.11919168	      0.03508554	     -0.11919168	     -0.11919168	     -0.11919168	      0.04611770	     -0.11919168	      0.05077509	     -0.11919168	      0.01042927	     -0.11919168	     -0.11919168	      0.03677582	     -0.11919168	     -0.11919168	      0.07096105	     -0.11919168	      0.21653795	     -0.11919168	      0.03322159	     -0.11919168	      0.10488491	     -0.11919168	      0.08054214	     -0.11919168	      0.03540457	     -0.11919168	      0.04157231	     -0.11919168	      0.04964831	     -0.11919168	      0.05281282
      1.00468229	     -0.08331781	    -16.51882941	     -0.00000000	     -0.00000000	     -0.00000000	     -0.00000000	      0.01776173	      0.03245891	     -4.02434867	     -9.90433310	      0.00000000	      0.00000000	    -15.88415402	     -9.40039763	     23.01907180	      9.61463549	    -26.19079890	     48.87815019	    -46.31209160	    -55.76347064	     -0.80829848	     -0.97325616	    -21.98909318	      6.73246935	     -0.00000000	     -0.00000000	      0.00000000	     -0.00000000	    -15.88415402	     -9.40039763	     23.01907180	      9.61463549	    -26.19079890	     48.87815018	    -46.31209160	    -55.76347064	     -0.80829848	     -0.97325616	    -21.98909318	      6.73246934	      0.00000000	      0.00000000	      0.00000000	      0.00000000	      2.08085694	     22.95690267	      0.00000000	      0.00000000	      0.00000000	      0.00000000	     -2.81465400	     -9.30912595	     -0.06919029	     -0.26585935	      0.24105993	      0.45068740	      0.39811634	      2.55819568	      0.01910029	     -0.32909195	      0.00000000	      0.00000000	      0.00000000	      0.00000000	     -2.81465400	     -9.30912595	     -0.06919029	     -0.26585935	      0.24105993	      0.45068740	      0.39811634	      2.55819568	      0.01910029	     -0.32909195	      0.00000000	      0.00000000	     -0.00000000	     -0.00000000	     -0.11935284	     -0.11935284	      0.10543856	     -0.11935284	     -0.11935284	      0.11043547	     -0.11935284	     -0.11935284	     -0.11935284	      0.08895791	     -0.11935284	     -0.11935284	      0.08100031	     -0.11935284	      0.09072521	     -0.11935284	      0.04188085	     -0.11935284	      0.04563545	     -0.11935284	      0.05678258	     -0.11935284	      0.02736586	     -0.11935284	     -0.11935284	     -0.11935284	     -0.11935284	     -0.11935284	     -0.11935284	     -0.11935284	     -0.11935284	     -0.11935284	      0.03510928	     -0.11935284	     -0.11935284	     -0.11935284	      0.04611858	     -0.11935284	      0.05077624	     -0.11935284	      0.01046291	     -0.11935284	     -0.11935284	      0.03672256	     -0.11935284	     -0.11935284	      0.07096495	     -0.11935284	      0.21654186	     -0.11935284	      0.03322609	     -0.11935284	      0.10487377	     -0.11935284	      0.08053787	     -0.11935284	      0.03540589	     -0.11935284	      0.04151789	     -0.11935284	      0.04961255	     -0.11935284	      0.05278268	     -0.11935284	     -0.11935284	      0.10543856	     -0.11935284	     -0.11935284	      0.11043547	     -0.11935284	     -0.11935284	     -0.11935284	      0.08895791	     -0.11935284	     -0.11935284	      0.08100031	     -0.11935284	      0.09072521	     -0.11935284	      0.04188085	     -0.11935284	      0.04563545	     -0.11935284	      0.05678258	     -0.11935284	      0.02736586	     -0.11935284	     -0.11935284	     -0.11935284	     -0.11935284	     -0.11935284	     -0.11935284	     -0.11935284	     -0.11935284	     -0.11935284	      0.03510928	     -0.11935284	     -0.11935284	     -0.11935284	      0.04611858	     -0.11935284	      0.05077624	     -0.11935284	      0.01046291	     -0.11935284	     -0.11935284	      0.03672256	     -0.11935284	     -0.11935284	      0.07096495	     -0.11935284	      0.21654186	     -0.11935284	      0.03322609	     -0.11935284	      0.10487377	     -0.11935284	      0.08053787	     -0.11935284	      0.03540589	     -0.11935284	      0.04151789	     -0.11935284	      0.04961255	     -0.11935284	      0.05278268
      1.00593402	     -0.10399653	    -16.52032543	     -0.00000000	     -0.00000000	     -0.00000000	     -0.00000000	      0.01780237	      0.03247099	     -4.03675392	     -9.91659491	      0.00000000	      0.00000000	    -15.89591498	     -9.39268702	     23.03103927	      9.50711727	    -26.12962579	     48.86255506	    -46.38186977	    -55.72895001	     -0.80951634	     -0.97265367	    -21.98039396	      7.15494270	     -0.00000000	     -0.00000000	      0.00000000	     -0.00000000	    -15.89591498	     -9.39268702	     23.03103927	      9.50711727	    -26.12962579	     48.86255506	    -46.38186977	    -55.72895001	     -0.80951634	     -0.97265367	    -21.98039396	      7.15494269	      0.00000000	      0.00000000	      0.00000000	      0.00000000	      2.10959637	     22.96141553	      0.00000000	      0.00000000	      0.00000000	      0.00000000	     -2.82630938	     -9.31347401	     -0.06952317	     -0.26601139	      0.24162409	      0.45071866	      0.40131966	      2.55992411	      0.01868812	     -0.32944272	      0.00000000	      0.00000000	      0.00000000	      0.00000000	     -2.82630938	     -9.31347401	     -0.06952317	     -0.26601139	      0.24162409	      0.45071866	      0.40131966	      2.55992411	      0.01868812	     -0.32944272	      0.00000000	      0.00000000	     -0.00000000	     -0.00000000	     -0.11951401	     -0.11951401	      0.10543174	     -0.11951401	     -0.11951401	      0.11042693	     -0.11951401	     -0.11951401	     -0.11951401	      0.08896233	     -0.11951401	     -0.11951401	      0.08099661	     -0.11951401	      0.09072119	     -0.11951401	      0.04188216	     -0.11951401	      0.04563749	     -0.11951401	      0.05677204	     -0.11951401	      0.02730911	     -0.11951401	     -0.11951401	     -0.11951401	     -0.11951401	     -0.11951401	     -0.11951401	     -0.11951401	     -0.11951401	     -0.11951401	      0.03513991	     -0.11951401	     -0.11951401	     -0.11951401	      0.04611954	     -0.11951401	      0.05077748	     -0.11951401	      0.01049655	     -0.11951401	     -0.11951401	      0.03666938	     -0.11951401	     -0.11951401	      0.07096880	     -0.11951401	      0.21654570	     -0.11951401	      0.03323097	     -0.11951401	      0.10486258	     -0.11951401	      0.08053324	     -0.11951401	      0.03540730	     -0.11951401	      0.04146357	     -0.11951401	      0.04957689	     -0.11951401	      0.05275263	     -0.11951401	     -0.11951401	      0.10543174	     -0.11951401	     -0.11951401	      0.11042693	     -0.11951401	     -0.11951401	     -0.11951401	      0.08896233	     -0.11951401	     -0.11951401	      0.08099661	     -0.11951401	      0.09072119	     -0.11951401	      0.04188216	     -0.11951401	      0.04563749	     -0.11951401	      0.05677204	     -0.11951401	      0.02730911	     -0.11951401	     -0.11951401	     -0.11951401	     -0.11951401	     -0.11951401	     -0.11951401	     -0.11951401	     -0.11951401	     -0.11951401	      0.03513991	     -0.11951401	     -0.11951401	     -0.11951401	      0.04611954	     -0.11951401	      0.05077748	     -0.11951401	      0.01049655	     -0.11951401	     -0.11951401	      0.03666938	     -0.11951401	     -0.11951401	      0.07096880	     -0.11951401	      0.21654570	     -0.11951401	      0.03323097	     -0.11951401	      0.10486258	     -0.11951401	      0.08053324	     -0.11951401	      0.03540730	     -0.11951401	      0.04146357	     -0.11951401	      0.04957689	     -0.11951401	      0.05275263
